#!OML:ASF H:\ManfredETheater\Project 1\Capture day 1\Session 1\subject.ASF
:FULLY-SPECIFIED
:DEGREES
716
root 4.23617 17.984 -4.87065 -7.16836 9.64583 -2.33554
lowerback 11.4693 -2.16932 -7.83505
upperback 0.30052 -3.83845 1.23898
thorax -5.52123 -1.66872 6.33505
lowerneck -14.4706 -2.74245 -2.28702
upperneck 22.8834 -3.92421 2.55961
head 9.73257 -1.73363 0.778917
rclavicle 2.99295e-014 1.07344e-014
rhumerus -45.4971 -7.23161 -29.2496
rradius 51.3891
rwrist -1.6252
rhand -10.3584 -14.6812
rfingers 7.12502
rthumb 15.6385 -44.0691
lclavicle 2.99295e-014 1.07344e-014
lhumerus -37.5398 11.4605 68.9985
lradius 56.0248
lwrist -8.52751
lhand -22.6285 2.88534
lfingers 7.12502
lthumb 3.80188 32.8312
rfemur -70.6693 -12.4241 8.70575
rtibia 77.7462
rfoot 25.963 2.50966
rtoes 14.4395
lfemur -0.622363 -5.72628 -26.8154
ltibia 29.1013
lfoot -15.1863 5.25021
ltoes 16.3932
717
root 4.2326 17.9707 -4.86373 -7.16822 9.48263 -2.19886
lowerback 11.3414 -2.12461 -7.83228
upperback 0.298128 -3.76941 1.21816
thorax -5.46491 -1.63797 6.29336
lowerneck -14.4491 -2.72584 -2.26358
upperneck 22.8817 -3.89608 2.51563
head 9.72562 -1.72376 0.763586
rclavicle 4.65529e-014 7.95139e-016
rhumerus -45.4486 -7.17266 -29.3699
rradius 51.3487
rwrist -1.59432
rhand -10.3773 -14.7188
rfingers 7.12502
rthumb 15.6203 -44.1081
lclavicle 4.65529e-014 7.95139e-016
lhumerus -37.7044 11.6121 68.7802
lradius 55.9701
lwrist -8.46621
lhand -22.5833 2.90728
lfingers 7.12502
lthumb 3.84547 32.8523
rfemur -70.8133 -12.4386 9.08589
rtibia 79.8906
rfoot 26.5665 2.45543
rtoes 14.7193
lfemur -0.694294 -5.75599 -26.9998
ltibia 29.3472
lfoot -15.2852 5.52539
ltoes 16.5133
718
root 4.22947 17.9586 -4.85655 -7.16121 9.33343 -2.0589
lowerback 11.209 -2.08542 -7.82694
upperback 0.291005 -3.70721 1.19659
thorax -5.41012 -1.61042 6.25052
lowerneck -14.4259 -2.71077 -2.24247
upperneck 22.8918 -3.87033 2.47325
head 9.72271 -1.71494 0.7489
rclavicle -2.73205e-014 -2.5842e-014
rhumerus -45.4103 -7.11052 -29.4985
rradius 51.3183
rwrist -1.56972
rhand -10.3976 -14.7436
rfingers 7.12502
rthumb 15.6008 -44.1344
lclavicle -2.73205e-014 -2.5842e-014
lhumerus -37.8563 11.7582 68.5711
lradius 55.8972
lwrist -8.42659
lhand -22.5407 2.91855
lfingers 7.12502
lthumb 3.88659 32.8629
rfemur -70.9339 -12.4788 9.46236
rtibia 81.9623
rfoot 27.1471 2.29315
rtoes 14.9175
lfemur -0.757616 -5.76973 -27.1806
ltibia 29.5611
lfoot -15.3736 5.76265
ltoes 16.6273
719
root 4.22682 17.9477 -4.84927 -7.14722 9.20114 -1.92081
lowerback 11.0743 -2.05303 -7.81453
upperback 0.278332 -3.65309 1.17641
thorax -5.35888 -1.58663 6.20653
lowerneck -14.4023 -2.69701 -2.22361
upperneck 22.9149 -3.84622 2.43074
head 9.72443 -1.70701 0.734321
rclavicle 2.32951e-014 -3.18055e-015
rhumerus -45.3828 -7.04422 -29.6339
rradius 51.2993
rwrist -1.55635
rhand -10.4077 -14.759
rfingers 7.12502
rthumb 15.591 -44.1506
lclavicle 2.32951e-014 -3.18055e-015
lhumerus -37.9967 11.8993 68.3728
lradius 55.809
lwrist -8.40742
lhand -22.5006 2.92155
lfingers 7.12502
lthumb 3.92541 32.8651
rfemur -71.0317 -12.5458 9.83868
rtibia 83.9501
rfoot 27.7181 2.03222
rtoes 15.0716
lfemur -0.814786 -5.77245 -27.3532
ltibia 29.7449
lfoot -15.4515 5.96341
ltoes 16.7348
720
root 4.22465 17.9381 -4.84208 -7.12637 9.08791 -1.78879
lowerback 10.9396 -2.02824 -7.79244
upperback 0.259717 -3.60791 1.1598
thorax -5.31282 -1.567 6.16253
lowerneck -14.3795 -2.68429 -2.20746
upperneck 22.9508 -3.82299 2.38713
head 9.73091 -1.69976 0.71967
rclavicle -4.76835e-014 -2.94201e-014
rhumerus -45.3653 -6.97313 -29.7741
rradius 51.2921
rwrist -1.55839
rhand -10.3987 -14.7676
rfingers 7.12502
rthumb 15.5997 -44.1585
lclavicle -4.76835e-014 -2.94201e-014
lhumerus -38.127 12.0358 68.1872
lradius 55.7096
lwrist -8.40417
lhand -22.4631 2.92124
lfingers 7.12502
lthumb 3.96155 32.8642
rfemur -71.1081 -12.6401 10.2184
rtibia 85.8439
rfoot 28.2934 1.68426
rtoes 15.2376
lfemur -0.867894 -5.769 -27.514
ltibia 29.9009
lfoot -15.519 6.13
ltoes 16.8363
